<svg xmlns="http://www.w3.org/2000/svg" width="14" height="14" fill="none"><path fill="#fff" fill-rule="evenodd" d="M8.789 9.763a.525.525 0 1 1-1.05 0v-2.92a.525.525 0 0 1 1.05 0v2.92Zm-2.411 0a.525.525 0 1 1-1.05 0v-2.92a.525.525 0 0 1 1.05 0v2.92ZM5.268 2.25a.583.583 0 0 1 .582-.583h2.418c.321 0 .583.261.583.583V2.8H5.267v-.549Zm6.573.549h-1.823v-.549c0-.965-.785-1.75-1.75-1.75H5.85c-.964 0-1.75.785-1.75 1.75V2.8H2.16a.7.7 0 0 0-.7.7v.35a.7.7 0 0 0 .7.7h.076l.275 7.021a1.4 1.4 0 0 0 1.4 1.345h6.297a1.4 1.4 0 0 0 1.399-1.345l.276-7.03a.695.695 0 0 0 .66-.691V3.5a.7.7 0 0 0-.7-.7Z" clip-rule="evenodd"/></svg>