<svg xmlns="http://www.w3.org/2000/svg" width="32" height="32" viewBox="0 0 32 32" fill="none">
  <path d="M26.225 8.69063C26.1597 8.49002 26.0327 8.31519 25.8621 8.19115C25.6914 8.0671 25.486 8.0002 25.275 8H23V4.5C23 3.94687 22.5531 3.5 22 3.5H10C9.44688 3.5 9 3.94687 9 4.5V8H6.725C6.51393 7.99972 6.30822 8.06644 6.13749 8.19055C5.96677 8.31466 5.83984 8.48976 5.775 8.69063L3.5 15.6875V27.5C3.5 28.0531 3.94687 28.5 4.5 28.5H27.5C28.0531 28.5 28.5 28.0531 28.5 27.5V15.6875L26.225 8.69063ZM20.625 19.625C20.625 19.7625 20.5125 19.875 20.375 19.875H17V23.25C17 23.3875 16.8875 23.5 16.75 23.5H15.25C15.1125 23.5 15 23.3875 15 23.25V19.875H11.625C11.4875 19.875 11.375 19.7625 11.375 19.625V18.125C11.375 17.9875 11.4875 17.875 11.625 17.875H15V14.5C15 14.3625 15.1125 14.25 15.25 14.25H16.75C16.8875 14.25 17 14.3625 17 14.5V17.875H20.375C20.5125 17.875 20.625 17.9875 20.625 18.125V19.625ZM20.75 8H11.25V5.75H20.75V8Z" fill="#D1D1D1"/>
</svg>