<svg xmlns="http://www.w3.org/2000/svg" width="32" height="32" viewBox="0 0 32 32" fill="none">
  <path d="M11.1579 2C6.10579 2 2.21368 6.18444 2 11.3333V30H15.7368V18.2711C17.4158 19.8111 19.5526 20.6667 21.8421 20.6667C26.8942 20.6667 31 16.4822 31 11.3333C31 6.18444 26.8942 2 21.8421 2H11.1579ZM21.8421 5.11111C25.2153 5.11111 27.9474 7.89556 27.9474 11.3333C27.9474 14.7711 25.2153 17.5556 21.8421 17.5556C18.4689 17.5556 15.7368 14.7711 15.7368 11.3333C15.7368 7.89556 18.4689 5.11111 21.8421 5.11111ZM21.8421 8.61111C20.3616 8.61111 19.1711 9.82444 19.1711 11.3333C19.1711 12.8422 20.3616 14.0556 21.8421 14.0556C23.3226 14.0556 24.5132 12.8422 24.5132 11.3333C24.5132 9.82444 23.3226 8.61111 21.8421 8.61111ZM3.52632 16H5.05263V17.5556H3.52632V16ZM6.57895 16H8.10526V17.5556H6.57895V16ZM9.63158 16H11.1579V17.5556H9.63158V16ZM12.6842 16H14.2105V17.5556H12.6842V16Z" fill="#D1D1D1"/>
</svg>