<svg xmlns="http://www.w3.org/2000/svg" width="28" height="28" viewBox="0 0 28 28" fill="none">
  <path fill-rule="evenodd" clip-rule="evenodd" d="M26.0924 9.93868L14.8297 0.982678C14.5941 0.794888 14.3017 0.692627 14.0004 0.692627C13.6991 0.692627 13.4067 0.794888 13.1711 0.982678L1.90706 9.93868C1.59312 10.1884 1.33957 10.5057 1.16528 10.867C0.990981 11.2283 0.900439 11.6242 0.900391 12.0253V24.5827C0.900391 25.4314 1.23753 26.2453 1.83765 26.8454C2.43777 27.4455 3.2517 27.7827 4.10039 27.7827H11.3337V21.4467C11.3337 21.0931 11.4742 20.7539 11.7242 20.5039C11.9743 20.2538 12.3134 20.1133 12.6671 20.1133H15.3337C15.6873 20.1133 16.0265 20.2538 16.2765 20.5039C16.5266 20.7539 16.6671 21.0931 16.6671 21.4467V27.7827H23.8991C24.7478 27.7827 25.5617 27.4455 26.1618 26.8454C26.7619 26.2453 27.0991 25.4314 27.0991 24.5827V12.0267C27.099 11.6255 27.0085 11.2296 26.8342 10.8683C26.6599 10.507 26.4063 10.1897 26.0924 9.94001" fill="#D1D1D1"/>
</svg>