<svg width="182" height="69" viewBox="0 0 182 69" fill="none" xmlns="http://www.w3.org/2000/svg">
<path d="M36.1406 20.0156C38.224 20.0156 39.9896 20.1823 41.4375 20.5156C42.8958 20.849 44.0052 21.3438 44.7656 22C45.5365 22.6562 45.9219 23.4583 45.9219 24.4062C45.9115 25.8229 45.0625 26.901 43.375 27.6406C41.6875 28.3802 39.276 28.7448 36.1406 28.7344C32.9635 28.7448 30.526 28.3802 28.8281 27.6406C27.1406 26.901 26.2969 25.8229 26.2969 24.4062C26.2969 22.9896 27.1458 21.9062 28.8438 21.1562C30.5417 20.3958 32.974 20.0156 36.1406 20.0156ZM36.1406 22.5469C34.7344 22.5573 33.5677 22.6302 32.6406 22.7656C31.724 22.901 31.026 23.1094 30.5469 23.3906C30.0781 23.6615 29.8438 24 29.8438 24.4062C29.8438 24.8125 30.0781 25.151 30.5469 25.4219C31.0156 25.6823 31.7083 25.875 32.625 26C33.5521 26.1354 34.724 26.2031 36.1406 26.2031C37.5469 26.2031 38.7083 26.1354 39.625 26C40.5521 25.875 41.2448 25.6823 41.7031 25.4219C42.1719 25.151 42.4062 24.8125 42.4062 24.4062C42.4062 24 42.1719 23.6615 41.7031 23.3906C41.2344 23.1094 40.5365 22.901 39.6094 22.7656C38.6927 22.6302 37.5365 22.5573 36.1406 22.5469ZM47.6406 5.34375H24.5625V2.67188H47.6406V5.34375ZM36.1719 6.21875C39.2031 6.22917 41.5208 6.57812 43.125 7.26562C44.7292 7.95312 45.5312 8.96875 45.5312 10.3125C45.5312 11.6146 44.724 12.6094 43.1094 13.2969C41.5052 13.974 39.1927 14.3125 36.1719 14.3125C33.1406 14.3125 30.8125 13.9688 29.1875 13.2812C27.5729 12.5938 26.7656 11.6042 26.7656 10.3125C26.7656 8.96875 27.5729 7.95312 29.1875 7.26562C30.8021 6.57812 33.1302 6.22917 36.1719 6.21875ZM36.1719 8.59375C34.8802 8.60417 33.8177 8.66667 32.9844 8.78125C32.1615 8.89583 31.5365 9.08333 31.1094 9.34375C30.6927 9.59375 30.4844 9.91667 30.4844 10.3125C30.4844 10.6562 30.6927 10.9479 31.1094 11.1875C31.5365 11.4167 32.1667 11.599 33 11.7344C33.8438 11.8594 34.901 11.9219 36.1719 11.9219C37.4323 11.9219 38.4792 11.8594 39.3125 11.7344C40.1562 11.599 40.7865 11.4167 41.2031 11.1875C41.6198 10.9479 41.8281 10.6562 41.8281 10.3125C41.8281 9.91667 41.6198 9.59375 41.2031 9.34375C40.7865 9.08333 40.1615 8.89583 39.3281 8.78125C38.5052 8.66667 37.4531 8.60417 36.1719 8.59375ZM37.8906 4.5H34.4219V0.265625H37.8906V4.5ZM49.0312 18.6875H23.3125V15.9688H49.0312V18.6875ZM37.8906 17.2031H34.4219V13.2344H37.8906V17.2031ZM74.4688 28.75H70.9844V21.375H55.2188V18.5625H74.4688V28.75ZM74.4688 17.1719H70.9844V0.53125H74.4688V17.1719ZM59.0781 2.14062C60.5156 2.14062 61.8125 2.43229 62.9688 3.01562C64.125 3.58854 65.0312 4.39062 65.6875 5.42188C66.3542 6.45312 66.6875 7.625 66.6875 8.9375C66.6875 10.2604 66.3542 11.4375 65.6875 12.4688C65.0312 13.5 64.125 14.3125 62.9688 14.9062C61.8125 15.4896 60.5156 15.7812 59.0781 15.7812C57.6302 15.7812 56.3281 15.4896 55.1719 14.9062C54.026 14.3125 53.1198 13.5 52.4531 12.4688C51.7969 11.4375 51.4688 10.2604 51.4688 8.9375C51.4688 7.625 51.7969 6.45312 52.4531 5.42188C53.1198 4.39062 54.026 3.58854 55.1719 3.01562C56.3281 2.43229 57.6302 2.14062 59.0781 2.14062ZM59.0781 5.09375C58.2552 5.10417 57.526 5.26562 56.8906 5.57812C56.2552 5.88021 55.7552 6.32292 55.3906 6.90625C55.0365 7.48958 54.8594 8.16667 54.8594 8.9375C54.8594 9.71875 55.0365 10.401 55.3906 10.9844C55.7552 11.5677 56.2552 12.0208 56.8906 12.3438C57.526 12.6667 58.2552 12.8229 59.0781 12.8125C59.8906 12.8229 60.6146 12.6667 61.25 12.3438C61.8854 12.0208 62.375 11.5677 62.7188 10.9844C63.0729 10.401 63.25 9.71875 63.25 8.9375C63.25 8.16667 63.0729 7.48958 62.7188 6.90625C62.375 6.32292 61.8854 5.88021 61.25 5.57812C60.6146 5.26562 59.8906 5.10417 59.0781 5.09375ZM102.906 28.75H99.625V0.53125H102.906V28.75ZM100.438 14.3906H95.4219V11.5938H100.438V14.3906ZM96.4219 27.3594H93.25V1.0625H96.4219V27.3594ZM81.4062 19.25C83.5521 19.25 85.3698 19.2031 86.8594 19.1094C88.3594 19.0156 89.8906 18.8229 91.4531 18.5312L91.7188 21.375C90.1354 21.6875 88.5833 21.8958 87.0625 22C85.5417 22.1042 83.6562 22.1615 81.4062 22.1719H79.4844V19.25H81.4062ZM90.0312 6.6875H82.9688V20.6562H79.4844V3.875H90.0312V6.6875ZM123.047 6H106.281V3.25H123.047V6ZM114.672 7.07812C116.026 7.08854 117.224 7.30729 118.266 7.73438C119.307 8.16146 120.115 8.76562 120.688 9.54688C121.271 10.3281 121.568 11.2292 121.578 12.25C121.568 13.2708 121.271 14.1719 120.688 14.9531C120.115 15.7344 119.302 16.3438 118.25 16.7812C117.208 17.2083 116.016 17.4219 114.672 17.4219C113.328 17.4219 112.13 17.2083 111.078 16.7812C110.026 16.3438 109.208 15.7344 108.625 14.9531C108.042 14.1719 107.75 13.2708 107.75 12.25C107.75 11.2292 108.042 10.3281 108.625 9.54688C109.208 8.76562 110.021 8.16146 111.062 7.73438C112.115 7.30729 113.318 7.08854 114.672 7.07812ZM114.672 9.70312C113.964 9.71354 113.339 9.82292 112.797 10.0312C112.255 10.2292 111.839 10.5208 111.547 10.9062C111.255 11.2812 111.109 11.7292 111.109 12.25C111.109 12.7708 111.255 13.2188 111.547 13.5938C111.839 13.9583 112.25 14.2396 112.781 14.4375C113.323 14.6354 113.953 14.7344 114.672 14.7344C115.391 14.7344 116.021 14.6354 116.562 14.4375C117.104 14.2396 117.526 13.9583 117.828 13.5938C118.13 13.2188 118.281 12.7708 118.281 12.25C118.281 11.7292 118.13 11.2812 117.828 10.9062C117.526 10.5208 117.104 10.2292 116.562 10.0312C116.021 9.82292 115.391 9.71354 114.672 9.70312ZM128.547 18.2344H125.078V0.53125H128.547V18.2344ZM132.5 10.8906H127.562V8.03125H132.5V10.8906ZM128.547 28.75H125.078V22.3125H109.719V19.5312H128.547V28.75ZM116.422 4.78125H112.938V0.40625H116.422V4.78125ZM154.609 5.90625H136.516V3.10938H154.609V5.90625ZM159.656 25.125H133.938V22.2969H159.656V25.125ZM143.156 23.2656H139.688V13.2812H143.156V23.2656ZM157.078 6.15625C157.078 7.69792 157.057 9.04167 157.016 10.1875C156.984 11.3229 156.891 12.6302 156.734 14.1094C156.589 15.5781 156.359 17.1562 156.047 18.8438L152.625 18.5156C152.927 16.9219 153.146 15.4167 153.281 14C153.427 12.5729 153.516 11.3177 153.547 10.2344C153.589 9.14062 153.609 7.79167 153.609 6.1875V6V3.10938H157.078V6V6.15625ZM150.172 23.2656H146.75V13.2812H150.172V23.2656ZM13.6875 51.5781C13.625 50.9427 13.4115 50.3906 13.0469 49.9219C12.6927 49.4531 12.2031 49.1042 11.5781 48.875C10.9531 48.6354 10.2344 48.5156 9.42188 48.5156C8.57812 48.5156 7.84896 48.6406 7.23438 48.8906C6.61979 49.1406 6.14062 49.4948 5.79688 49.9531C5.46354 50.401 5.29688 50.9115 5.29688 51.4844C5.29688 52.3385 5.65104 53.0052 6.35938 53.4844C7.07812 53.9531 8.01562 54.3281 9.17188 54.6094L11.2812 55.1406C13.2812 55.6094 14.8854 56.3542 16.0938 57.375C17.3125 58.3958 17.9271 59.8177 17.9375 61.6406C17.9375 62.974 17.599 64.1458 16.9219 65.1562C16.2448 66.1667 15.2604 66.9531 13.9688 67.5156C12.6771 68.0677 11.1354 68.3438 9.34375 68.3438C7.59375 68.3542 6.07292 68.0833 4.78125 67.5312C3.48958 66.9688 2.47917 66.1667 1.75 65.125C1.03125 64.0729 0.640625 62.8073 0.578125 61.3281H4.57812C4.63021 62.099 4.86979 62.75 5.29688 63.2812C5.72396 63.8125 6.28125 64.2083 6.96875 64.4688C7.66667 64.7292 8.44792 64.8594 9.3125 64.8594C10.2083 64.8594 11 64.724 11.6875 64.4531C12.375 64.1823 12.9062 63.8021 13.2812 63.3125C13.6562 62.8125 13.849 62.2448 13.8594 61.6094C13.849 61.0469 13.6823 60.5677 13.3594 60.1719C13.0469 59.776 12.5938 59.4531 12 59.2031C11.4167 58.9427 10.6771 58.6979 9.78125 58.4688L7.20312 57.8125C5.26562 57.3021 3.77604 56.5521 2.73438 55.5625C1.69271 54.5729 1.17708 53.2917 1.1875 51.7188C1.1875 50.4062 1.54167 49.2448 2.25 48.2344C2.96875 47.2135 3.95833 46.4323 5.21875 45.8906C6.47917 45.3385 7.90104 45.0625 9.48438 45.0625C11.0573 45.0625 12.4583 45.3385 13.6875 45.8906C14.9167 46.4427 15.875 47.2135 16.5625 48.2031C17.25 49.1927 17.6042 50.3177 17.625 51.5781H13.6875ZM21.3125 45.375H36.0156V48.7969H25.375V54.9844H35.25V58.375H25.375V64.5781H36.0781V68H21.3125V45.375ZM44.8906 45.375L51.625 61.8125H51.8906L58.625 45.375H63.6094V68H59.7031V52.4219H59.4844L53.2188 67.9219H50.2969L44.0156 52.3906H43.8281V68H39.9062V45.375H44.8906ZM71.9062 68H67.8438V45.375H71.9062V68ZM91.3594 53C91.2031 52.1146 90.875 51.349 90.375 50.7031C89.875 50.0573 89.2448 49.5677 88.4844 49.2344C87.724 48.8906 86.8802 48.7188 85.9531 48.7188C84.7135 48.7188 83.6146 49.0312 82.6562 49.6562C81.7083 50.2708 80.9635 51.1771 80.4219 52.375C79.8906 53.5729 79.625 55.0104 79.625 56.6875C79.625 58.3854 79.8906 59.8281 80.4219 61.0156C80.9635 62.2031 81.7083 63.1094 82.6562 63.7344C83.6042 64.349 84.6979 64.6562 85.9375 64.6562C86.8438 64.6562 87.6771 64.4948 88.4375 64.1719C89.1979 63.8385 89.8281 63.3594 90.3281 62.7344C90.8385 62.1094 91.1823 61.3646 91.3594 60.5L95.4688 60.5156C95.25 61.974 94.7188 63.2969 93.875 64.4844C93.0417 65.6615 91.9375 66.5938 90.5625 67.2812C89.1875 67.9688 87.6302 68.3125 85.8906 68.3125C83.8906 68.3125 82.1094 67.849 80.5469 66.9219C78.9844 65.9844 77.7604 64.6406 76.875 62.8906C75.9896 61.1302 75.5469 59.0625 75.5469 56.6875C75.5469 54.3021 75.9948 52.2344 76.8906 50.4844C77.7865 48.724 79.0104 47.3802 80.5625 46.4531C82.125 45.526 83.901 45.0625 85.8906 45.0625C87.5573 45.0625 89.0729 45.375 90.4375 46C91.8125 46.625 92.9323 47.5365 93.7969 48.7344C94.6719 49.9323 95.2292 51.3542 95.4688 53H91.3594ZM119.141 56.6875C119.141 59.0729 118.693 61.1406 117.797 62.8906C116.911 64.6406 115.682 65.9844 114.109 66.9219C112.536 67.849 110.755 68.3125 108.766 68.3125C106.766 68.3125 104.984 67.849 103.422 66.9219C101.859 65.9844 100.63 64.6406 99.7344 62.8906C98.8385 61.1302 98.3906 59.0625 98.3906 56.6875C98.3906 54.3021 98.8385 52.2344 99.7344 50.4844C100.63 48.724 101.859 47.3802 103.422 46.4531C104.984 45.526 106.766 45.0625 108.766 45.0625C110.755 45.0625 112.536 45.526 114.109 46.4531C115.682 47.3802 116.911 48.724 117.797 50.4844C118.693 52.2344 119.141 54.3021 119.141 56.6875ZM115.062 56.6875C115.062 55 114.797 53.5573 114.266 52.3594C113.745 51.1615 113.01 50.2552 112.062 49.6406C111.115 49.026 110.016 48.7188 108.766 48.7188C107.526 48.7188 106.432 49.026 105.484 49.6406C104.536 50.2552 103.797 51.1615 103.266 52.3594C102.734 53.5573 102.469 55 102.469 56.6875C102.469 58.375 102.734 59.8125 103.266 61C103.797 62.1875 104.536 63.0938 105.484 63.7188C106.432 64.3438 107.526 64.6562 108.766 64.6562C110.016 64.6562 111.115 64.3438 112.062 63.7188C113.01 63.0938 113.745 62.1875 114.266 61C114.797 59.8125 115.062 58.375 115.062 56.6875ZM122.781 45.375H126.844V64.5781H136.844V68H122.781V45.375ZM159.391 56.6875C159.391 59.0729 158.943 61.1406 158.047 62.8906C157.161 64.6406 155.932 65.9844 154.359 66.9219C152.786 67.849 151.005 68.3125 149.016 68.3125C147.016 68.3125 145.234 67.849 143.672 66.9219C142.109 65.9844 140.88 64.6406 139.984 62.8906C139.089 61.1302 138.641 59.0625 138.641 56.6875C138.641 54.3021 139.089 52.2344 139.984 50.4844C140.88 48.724 142.109 47.3802 143.672 46.4531C145.234 45.526 147.016 45.0625 149.016 45.0625C151.005 45.0625 152.786 45.526 154.359 46.4531C155.932 47.3802 157.161 48.724 158.047 50.4844C158.943 52.2344 159.391 54.3021 159.391 56.6875ZM155.312 56.6875C155.312 55 155.047 53.5573 154.516 52.3594C153.995 51.1615 153.26 50.2552 152.312 49.6406C151.365 49.026 150.266 48.7188 149.016 48.7188C147.776 48.7188 146.682 49.026 145.734 49.6406C144.786 50.2552 144.047 51.1615 143.516 52.3594C142.984 53.5573 142.719 55 142.719 56.6875C142.719 58.375 142.984 59.8125 143.516 61C144.047 62.1875 144.786 63.0938 145.734 63.7188C146.682 64.3438 147.776 64.6562 149.016 64.6562C150.266 64.6562 151.365 64.3438 152.312 63.7188C153.26 63.0938 153.995 62.1875 154.516 61C155.047 59.8125 155.312 58.375 155.312 56.6875ZM181.609 68H178L167.297 52.5469H167.094V68H163.031V45.375H166.688L177.359 60.8438H177.562V45.375H181.609V68Z" fill="white"/>
<path d="M36.1406 20.0156C38.224 20.0156 39.9896 20.1823 41.4375 20.5156C42.8958 20.849 44.0052 21.3438 44.7656 22C45.5365 22.6562 45.9219 23.4583 45.9219 24.4062C45.9115 25.8229 45.0625 26.901 43.375 27.6406C41.6875 28.3802 39.276 28.7448 36.1406 28.7344C32.9635 28.7448 30.526 28.3802 28.8281 27.6406C27.1406 26.901 26.2969 25.8229 26.2969 24.4062C26.2969 22.9896 27.1458 21.9062 28.8438 21.1562C30.5417 20.3958 32.974 20.0156 36.1406 20.0156ZM36.1406 22.5469C34.7344 22.5573 33.5677 22.6302 32.6406 22.7656C31.724 22.901 31.026 23.1094 30.5469 23.3906C30.0781 23.6615 29.8438 24 29.8438 24.4062C29.8438 24.8125 30.0781 25.151 30.5469 25.4219C31.0156 25.6823 31.7083 25.875 32.625 26C33.5521 26.1354 34.724 26.2031 36.1406 26.2031C37.5469 26.2031 38.7083 26.1354 39.625 26C40.5521 25.875 41.2448 25.6823 41.7031 25.4219C42.1719 25.151 42.4062 24.8125 42.4062 24.4062C42.4062 24 42.1719 23.6615 41.7031 23.3906C41.2344 23.1094 40.5365 22.901 39.6094 22.7656C38.6927 22.6302 37.5365 22.5573 36.1406 22.5469ZM47.6406 5.34375H24.5625V2.67188H47.6406V5.34375ZM36.1719 6.21875C39.2031 6.22917 41.5208 6.57812 43.125 7.26562C44.7292 7.95312 45.5312 8.96875 45.5312 10.3125C45.5312 11.6146 44.724 12.6094 43.1094 13.2969C41.5052 13.974 39.1927 14.3125 36.1719 14.3125C33.1406 14.3125 30.8125 13.9688 29.1875 13.2812C27.5729 12.5938 26.7656 11.6042 26.7656 10.3125C26.7656 8.96875 27.5729 7.95312 29.1875 7.26562C30.8021 6.57812 33.1302 6.22917 36.1719 6.21875ZM36.1719 8.59375C34.8802 8.60417 33.8177 8.66667 32.9844 8.78125C32.1615 8.89583 31.5365 9.08333 31.1094 9.34375C30.6927 9.59375 30.4844 9.91667 30.4844 10.3125C30.4844 10.6562 30.6927 10.9479 31.1094 11.1875C31.5365 11.4167 32.1667 11.599 33 11.7344C33.8438 11.8594 34.901 11.9219 36.1719 11.9219C37.4323 11.9219 38.4792 11.8594 39.3125 11.7344C40.1562 11.599 40.7865 11.4167 41.2031 11.1875C41.6198 10.9479 41.8281 10.6562 41.8281 10.3125C41.8281 9.91667 41.6198 9.59375 41.2031 9.34375C40.7865 9.08333 40.1615 8.89583 39.3281 8.78125C38.5052 8.66667 37.4531 8.60417 36.1719 8.59375ZM37.8906 4.5H34.4219V0.265625H37.8906V4.5ZM49.0312 18.6875H23.3125V15.9688H49.0312V18.6875ZM37.8906 17.2031H34.4219V13.2344H37.8906V17.2031ZM74.4688 28.75H70.9844V21.375H55.2188V18.5625H74.4688V28.75ZM74.4688 17.1719H70.9844V0.53125H74.4688V17.1719ZM59.0781 2.14062C60.5156 2.14062 61.8125 2.43229 62.9688 3.01562C64.125 3.58854 65.0312 4.39062 65.6875 5.42188C66.3542 6.45312 66.6875 7.625 66.6875 8.9375C66.6875 10.2604 66.3542 11.4375 65.6875 12.4688C65.0312 13.5 64.125 14.3125 62.9688 14.9062C61.8125 15.4896 60.5156 15.7812 59.0781 15.7812C57.6302 15.7812 56.3281 15.4896 55.1719 14.9062C54.026 14.3125 53.1198 13.5 52.4531 12.4688C51.7969 11.4375 51.4688 10.2604 51.4688 8.9375C51.4688 7.625 51.7969 6.45312 52.4531 5.42188C53.1198 4.39062 54.026 3.58854 55.1719 3.01562C56.3281 2.43229 57.6302 2.14062 59.0781 2.14062ZM59.0781 5.09375C58.2552 5.10417 57.526 5.26562 56.8906 5.57812C56.2552 5.88021 55.7552 6.32292 55.3906 6.90625C55.0365 7.48958 54.8594 8.16667 54.8594 8.9375C54.8594 9.71875 55.0365 10.401 55.3906 10.9844C55.7552 11.5677 56.2552 12.0208 56.8906 12.3438C57.526 12.6667 58.2552 12.8229 59.0781 12.8125C59.8906 12.8229 60.6146 12.6667 61.25 12.3438C61.8854 12.0208 62.375 11.5677 62.7188 10.9844C63.0729 10.401 63.25 9.71875 63.25 8.9375C63.25 8.16667 63.0729 7.48958 62.7188 6.90625C62.375 6.32292 61.8854 5.88021 61.25 5.57812C60.6146 5.26562 59.8906 5.10417 59.0781 5.09375ZM102.906 28.75H99.625V0.53125H102.906V28.75ZM100.438 14.3906H95.4219V11.5938H100.438V14.3906ZM96.4219 27.3594H93.25V1.0625H96.4219V27.3594ZM81.4062 19.25C83.5521 19.25 85.3698 19.2031 86.8594 19.1094C88.3594 19.0156 89.8906 18.8229 91.4531 18.5312L91.7188 21.375C90.1354 21.6875 88.5833 21.8958 87.0625 22C85.5417 22.1042 83.6562 22.1615 81.4062 22.1719H79.4844V19.25H81.4062ZM90.0312 6.6875H82.9688V20.6562H79.4844V3.875H90.0312V6.6875ZM123.047 6H106.281V3.25H123.047V6ZM114.672 7.07812C116.026 7.08854 117.224 7.30729 118.266 7.73438C119.307 8.16146 120.115 8.76562 120.688 9.54688C121.271 10.3281 121.568 11.2292 121.578 12.25C121.568 13.2708 121.271 14.1719 120.688 14.9531C120.115 15.7344 119.302 16.3438 118.25 16.7812C117.208 17.2083 116.016 17.4219 114.672 17.4219C113.328 17.4219 112.13 17.2083 111.078 16.7812C110.026 16.3438 109.208 15.7344 108.625 14.9531C108.042 14.1719 107.75 13.2708 107.75 12.25C107.75 11.2292 108.042 10.3281 108.625 9.54688C109.208 8.76562 110.021 8.16146 111.062 7.73438C112.115 7.30729 113.318 7.08854 114.672 7.07812ZM114.672 9.70312C113.964 9.71354 113.339 9.82292 112.797 10.0312C112.255 10.2292 111.839 10.5208 111.547 10.9062C111.255 11.2812 111.109 11.7292 111.109 12.25C111.109 12.7708 111.255 13.2188 111.547 13.5938C111.839 13.9583 112.25 14.2396 112.781 14.4375C113.323 14.6354 113.953 14.7344 114.672 14.7344C115.391 14.7344 116.021 14.6354 116.562 14.4375C117.104 14.2396 117.526 13.9583 117.828 13.5938C118.13 13.2188 118.281 12.7708 118.281 12.25C118.281 11.7292 118.13 11.2812 117.828 10.9062C117.526 10.5208 117.104 10.2292 116.562 10.0312C116.021 9.82292 115.391 9.71354 114.672 9.70312ZM128.547 18.2344H125.078V0.53125H128.547V18.2344ZM132.5 10.8906H127.562V8.03125H132.5V10.8906ZM128.547 28.75H125.078V22.3125H109.719V19.5312H128.547V28.75ZM116.422 4.78125H112.938V0.40625H116.422V4.78125ZM154.609 5.90625H136.516V3.10938H154.609V5.90625ZM159.656 25.125H133.938V22.2969H159.656V25.125ZM143.156 23.2656H139.688V13.2812H143.156V23.2656ZM157.078 6.15625C157.078 7.69792 157.057 9.04167 157.016 10.1875C156.984 11.3229 156.891 12.6302 156.734 14.1094C156.589 15.5781 156.359 17.1562 156.047 18.8438L152.625 18.5156C152.927 16.9219 153.146 15.4167 153.281 14C153.427 12.5729 153.516 11.3177 153.547 10.2344C153.589 9.14062 153.609 7.79167 153.609 6.1875V6V3.10938H157.078V6V6.15625ZM150.172 23.2656H146.75V13.2812H150.172V23.2656ZM13.6875 51.5781C13.625 50.9427 13.4115 50.3906 13.0469 49.9219C12.6927 49.4531 12.2031 49.1042 11.5781 48.875C10.9531 48.6354 10.2344 48.5156 9.42188 48.5156C8.57812 48.5156 7.84896 48.6406 7.23438 48.8906C6.61979 49.1406 6.14062 49.4948 5.79688 49.9531C5.46354 50.401 5.29688 50.9115 5.29688 51.4844C5.29688 52.3385 5.65104 53.0052 6.35938 53.4844C7.07812 53.9531 8.01562 54.3281 9.17188 54.6094L11.2812 55.1406C13.2812 55.6094 14.8854 56.3542 16.0938 57.375C17.3125 58.3958 17.9271 59.8177 17.9375 61.6406C17.9375 62.974 17.599 64.1458 16.9219 65.1562C16.2448 66.1667 15.2604 66.9531 13.9688 67.5156C12.6771 68.0677 11.1354 68.3438 9.34375 68.3438C7.59375 68.3542 6.07292 68.0833 4.78125 67.5312C3.48958 66.9688 2.47917 66.1667 1.75 65.125C1.03125 64.0729 0.640625 62.8073 0.578125 61.3281H4.57812C4.63021 62.099 4.86979 62.75 5.29688 63.2812C5.72396 63.8125 6.28125 64.2083 6.96875 64.4688C7.66667 64.7292 8.44792 64.8594 9.3125 64.8594C10.2083 64.8594 11 64.724 11.6875 64.4531C12.375 64.1823 12.9062 63.8021 13.2812 63.3125C13.6562 62.8125 13.849 62.2448 13.8594 61.6094C13.849 61.0469 13.6823 60.5677 13.3594 60.1719C13.0469 59.776 12.5938 59.4531 12 59.2031C11.4167 58.9427 10.6771 58.6979 9.78125 58.4688L7.20312 57.8125C5.26562 57.3021 3.77604 56.5521 2.73438 55.5625C1.69271 54.5729 1.17708 53.2917 1.1875 51.7188C1.1875 50.4062 1.54167 49.2448 2.25 48.2344C2.96875 47.2135 3.95833 46.4323 5.21875 45.8906C6.47917 45.3385 7.90104 45.0625 9.48438 45.0625C11.0573 45.0625 12.4583 45.3385 13.6875 45.8906C14.9167 46.4427 15.875 47.2135 16.5625 48.2031C17.25 49.1927 17.6042 50.3177 17.625 51.5781H13.6875ZM21.3125 45.375H36.0156V48.7969H25.375V54.9844H35.25V58.375H25.375V64.5781H36.0781V68H21.3125V45.375ZM44.8906 45.375L51.625 61.8125H51.8906L58.625 45.375H63.6094V68H59.7031V52.4219H59.4844L53.2188 67.9219H50.2969L44.0156 52.3906H43.8281V68H39.9062V45.375H44.8906ZM71.9062 68H67.8438V45.375H71.9062V68ZM91.3594 53C91.2031 52.1146 90.875 51.349 90.375 50.7031C89.875 50.0573 89.2448 49.5677 88.4844 49.2344C87.724 48.8906 86.8802 48.7188 85.9531 48.7188C84.7135 48.7188 83.6146 49.0312 82.6562 49.6562C81.7083 50.2708 80.9635 51.1771 80.4219 52.375C79.8906 53.5729 79.625 55.0104 79.625 56.6875C79.625 58.3854 79.8906 59.8281 80.4219 61.0156C80.9635 62.2031 81.7083 63.1094 82.6562 63.7344C83.6042 64.349 84.6979 64.6562 85.9375 64.6562C86.8438 64.6562 87.6771 64.4948 88.4375 64.1719C89.1979 63.8385 89.8281 63.3594 90.3281 62.7344C90.8385 62.1094 91.1823 61.3646 91.3594 60.5L95.4688 60.5156C95.25 61.974 94.7188 63.2969 93.875 64.4844C93.0417 65.6615 91.9375 66.5938 90.5625 67.2812C89.1875 67.9688 87.6302 68.3125 85.8906 68.3125C83.8906 68.3125 82.1094 67.849 80.5469 66.9219C78.9844 65.9844 77.7604 64.6406 76.875 62.8906C75.9896 61.1302 75.5469 59.0625 75.5469 56.6875C75.5469 54.3021 75.9948 52.2344 76.8906 50.4844C77.7865 48.724 79.0104 47.3802 80.5625 46.4531C82.125 45.526 83.901 45.0625 85.8906 45.0625C87.5573 45.0625 89.0729 45.375 90.4375 46C91.8125 46.625 92.9323 47.5365 93.7969 48.7344C94.6719 49.9323 95.2292 51.3542 95.4688 53H91.3594ZM119.141 56.6875C119.141 59.0729 118.693 61.1406 117.797 62.8906C116.911 64.6406 115.682 65.9844 114.109 66.9219C112.536 67.849 110.755 68.3125 108.766 68.3125C106.766 68.3125 104.984 67.849 103.422 66.9219C101.859 65.9844 100.63 64.6406 99.7344 62.8906C98.8385 61.1302 98.3906 59.0625 98.3906 56.6875C98.3906 54.3021 98.8385 52.2344 99.7344 50.4844C100.63 48.724 101.859 47.3802 103.422 46.4531C104.984 45.526 106.766 45.0625 108.766 45.0625C110.755 45.0625 112.536 45.526 114.109 46.4531C115.682 47.3802 116.911 48.724 117.797 50.4844C118.693 52.2344 119.141 54.3021 119.141 56.6875ZM115.062 56.6875C115.062 55 114.797 53.5573 114.266 52.3594C113.745 51.1615 113.01 50.2552 112.062 49.6406C111.115 49.026 110.016 48.7188 108.766 48.7188C107.526 48.7188 106.432 49.026 105.484 49.6406C104.536 50.2552 103.797 51.1615 103.266 52.3594C102.734 53.5573 102.469 55 102.469 56.6875C102.469 58.375 102.734 59.8125 103.266 61C103.797 62.1875 104.536 63.0938 105.484 63.7188C106.432 64.3438 107.526 64.6562 108.766 64.6562C110.016 64.6562 111.115 64.3438 112.062 63.7188C113.01 63.0938 113.745 62.1875 114.266 61C114.797 59.8125 115.062 58.375 115.062 56.6875ZM122.781 45.375H126.844V64.5781H136.844V68H122.781V45.375ZM159.391 56.6875C159.391 59.0729 158.943 61.1406 158.047 62.8906C157.161 64.6406 155.932 65.9844 154.359 66.9219C152.786 67.849 151.005 68.3125 149.016 68.3125C147.016 68.3125 145.234 67.849 143.672 66.9219C142.109 65.9844 140.88 64.6406 139.984 62.8906C139.089 61.1302 138.641 59.0625 138.641 56.6875C138.641 54.3021 139.089 52.2344 139.984 50.4844C140.88 48.724 142.109 47.3802 143.672 46.4531C145.234 45.526 147.016 45.0625 149.016 45.0625C151.005 45.0625 152.786 45.526 154.359 46.4531C155.932 47.3802 157.161 48.724 158.047 50.4844C158.943 52.2344 159.391 54.3021 159.391 56.6875ZM155.312 56.6875C155.312 55 155.047 53.5573 154.516 52.3594C153.995 51.1615 153.26 50.2552 152.312 49.6406C151.365 49.026 150.266 48.7188 149.016 48.7188C147.776 48.7188 146.682 49.026 145.734 49.6406C144.786 50.2552 144.047 51.1615 143.516 52.3594C142.984 53.5573 142.719 55 142.719 56.6875C142.719 58.375 142.984 59.8125 143.516 61C144.047 62.1875 144.786 63.0938 145.734 63.7188C146.682 64.3438 147.776 64.6562 149.016 64.6562C150.266 64.6562 151.365 64.3438 152.312 63.7188C153.26 63.0938 153.995 62.1875 154.516 61C155.047 59.8125 155.312 58.375 155.312 56.6875ZM181.609 68H178L167.297 52.5469H167.094V68H163.031V45.375H166.688L177.359 60.8438H177.562V45.375H181.609V68Z" fill="url(#paint0_linear_1838_2993)"/>
<defs>
<linearGradient id="paint0_linear_1838_2993" x1="91.5" y1="49" x2="91.5" y2="105" gradientUnits="userSpaceOnUse">
<stop stop-opacity="0"/>
<stop offset="0.750302"/>
</linearGradient>
</defs>
</svg>
