<svg width="148" height="148" viewBox="0 0 148 148" fill="none" xmlns="http://www.w3.org/2000/svg">
<g filter="url(#filter0_f_1838_3103)">
<rect x="83.9888" y="135.266" width="78.0528" height="77.149" rx="24" transform="rotate(-170.834 83.9888 135.266)" fill="url(#paint0_linear_1838_3103)" style="mix-blend-mode:screen"/>
</g>
<g filter="url(#filter1_f_1838_3103)">
<rect x="90.5322" y="138" width="78.0528" height="77.149" rx="24" transform="rotate(-170.834 90.5322 138)" fill="#B4DBFF" style="mix-blend-mode:screen"/>
</g>
<g filter="url(#filter2_f_1838_3103)">
<rect x="89.5322" y="98" width="78.0528" height="77.149" rx="24" transform="rotate(-170.834 89.5322 98)" fill="#0075FF" style="mix-blend-mode:screen"/>
</g>
<g filter="url(#filter3_f_1838_3103)">
<rect x="123.69" y="123.98" width="62.8451" height="98.4053" rx="24" transform="rotate(-168.689 123.69 123.98)" fill="url(#paint1_linear_1838_3103)" style="mix-blend-mode:screen"/>
</g>
<g filter="url(#filter4_i_1838_3103)">
<rect x="131.821" y="132" width="116" height="117" rx="24" transform="rotate(180 131.821 132)" fill="black"/>
<rect x="131.821" y="132" width="116" height="117" rx="24" transform="rotate(180 131.821 132)" fill="url(#paint2_linear_1838_3103)" fill-opacity="0.4"/>
<rect x="131.821" y="132" width="116" height="117" rx="24" transform="rotate(180 131.821 132)" fill="url(#paint3_linear_1838_3103)" fill-opacity="0.4"/>
<rect x="131.821" y="132" width="116" height="117" rx="24" transform="rotate(180 131.821 132)" fill="url(#paint4_linear_1838_3103)" fill-opacity="0.4"/>
<rect x="131.821" y="132" width="116" height="117" rx="24" transform="rotate(180 131.821 132)" fill="url(#paint5_radial_1838_3103)" fill-opacity="0.9" style="mix-blend-mode:screen"/>
<rect x="131.821" y="132" width="116" height="117" rx="24" transform="rotate(180 131.821 132)" fill="url(#paint6_radial_1838_3103)" fill-opacity="0.9" style="mix-blend-mode:screen"/>
<g filter="url(#filter5_d_1838_3103)">
<path d="M65.7663 67.6524C68.1927 65.3786 71.3655 64.2396 74.704 64.4534C77.9946 64.6673 80.9055 66.2777 82.9261 68.7172C84.7372 66.6268 85.837 63.8992 85.837 60.9229C85.8413 54.3461 80.4953 49 73.9229 49C67.3504 49 62 54.3461 62 60.9229C62 63.8599 63.0692 66.5526 64.8411 68.6343C65.1291 68.2939 65.4389 67.9622 65.7706 67.6524H65.7663Z" fill="white"/>
<path d="M73.9229 72.9286C70.2875 72.9286 67.0319 71.292 64.8411 68.7172C63.0212 70.8643 62 73.6094 62 76.4373C62 82.6126 66.7569 87.7798 72.8755 88.3122C72.4696 89.5211 71.4004 91.6944 68.603 94.2169C67.4595 95.2468 67.573 96.0018 67.8654 96.4557C68.1316 96.8703 68.651 97.0972 69.323 97.0972C69.8293 97.0972 70.3835 96.975 70.8898 96.7481C79.6923 92.8291 85.8413 84.6856 85.8413 76.9479C85.8413 73.845 84.7459 70.9909 82.9305 68.8044C80.744 71.3313 77.5145 72.9329 73.9229 72.9329V72.9286Z" fill="white"/>
</g>
</g>
<defs>
<filter id="filter0_f_1838_3103" x="2.93262" y="42.6687" width="97.3452" height="96.5969" filterUnits="userSpaceOnUse" color-interpolation-filters="sRGB">
<feFlood flood-opacity="0" result="BackgroundImageFix"/>
<feBlend mode="normal" in="SourceGraphic" in2="BackgroundImageFix" result="shape"/>
<feGaussianBlur stdDeviation="2" result="effect1_foregroundBlur_1838_3103"/>
</filter>
<filter id="filter1_f_1838_3103" x="12.4761" y="48.4031" width="91.3452" height="90.5969" filterUnits="userSpaceOnUse" color-interpolation-filters="sRGB">
<feFlood flood-opacity="0" result="BackgroundImageFix"/>
<feBlend mode="normal" in="SourceGraphic" in2="BackgroundImageFix" result="shape"/>
<feGaussianBlur stdDeviation="0.5" result="effect1_foregroundBlur_1838_3103"/>
</filter>
<filter id="filter2_f_1838_3103" x="11.4761" y="8.40308" width="91.3452" height="90.5969" filterUnits="userSpaceOnUse" color-interpolation-filters="sRGB">
<feFlood flood-opacity="0" result="BackgroundImageFix"/>
<feBlend mode="normal" in="SourceGraphic" in2="BackgroundImageFix" result="shape"/>
<feGaussianBlur stdDeviation="0.5" result="effect1_foregroundBlur_1838_3103"/>
</filter>
<filter id="filter3_f_1838_3103" x="58.0654" y="11.16" width="88.9253" height="116.82" filterUnits="userSpaceOnUse" color-interpolation-filters="sRGB">
<feFlood flood-opacity="0" result="BackgroundImageFix"/>
<feBlend mode="normal" in="SourceGraphic" in2="BackgroundImageFix" result="shape"/>
<feGaussianBlur stdDeviation="2" result="effect1_foregroundBlur_1838_3103"/>
</filter>
<filter id="filter4_i_1838_3103" x="15.8213" y="15" width="116" height="117" filterUnits="userSpaceOnUse" color-interpolation-filters="sRGB">
<feFlood flood-opacity="0" result="BackgroundImageFix"/>
<feBlend mode="normal" in="SourceGraphic" in2="BackgroundImageFix" result="shape"/>
<feColorMatrix in="SourceAlpha" type="matrix" values="0 0 0 0 0 0 0 0 0 0 0 0 0 0 0 0 0 0 127 0" result="hardAlpha"/>
<feOffset/>
<feGaussianBlur stdDeviation="1.5"/>
<feComposite in2="hardAlpha" operator="arithmetic" k2="-1" k3="1"/>
<feColorMatrix type="matrix" values="0 0 0 0 1 0 0 0 0 1 0 0 0 0 1 0 0 0 1 0"/>
<feBlend mode="screen" in2="shape" result="effect1_innerShadow_1838_3103"/>
</filter>
<filter id="filter5_d_1838_3103" x="58" y="45" width="31.8413" height="56.0972" filterUnits="userSpaceOnUse" color-interpolation-filters="sRGB">
<feFlood flood-opacity="0" result="BackgroundImageFix"/>
<feColorMatrix in="SourceAlpha" type="matrix" values="0 0 0 0 0 0 0 0 0 0 0 0 0 0 0 0 0 0 127 0" result="hardAlpha"/>
<feOffset/>
<feGaussianBlur stdDeviation="2"/>
<feComposite in2="hardAlpha" operator="out"/>
<feColorMatrix type="matrix" values="0 0 0 0 1 0 0 0 0 1 0 0 0 0 1 0 0 0 0.7 0"/>
<feBlend mode="screen" in2="BackgroundImageFix" result="effect1_dropShadow_1838_3103"/>
<feBlend mode="normal" in="SourceGraphic" in2="effect1_dropShadow_1838_3103" result="shape"/>
</filter>
<linearGradient id="paint0_linear_1838_3103" x1="123.015" y1="135.266" x2="123.015" y2="212.415" gradientUnits="userSpaceOnUse">
<stop stop-color="#0057FF"/>
<stop offset="1" stop-color="#00E0FF" stop-opacity="0"/>
</linearGradient>
<linearGradient id="paint1_linear_1838_3103" x1="121.673" y1="171.167" x2="157.184" y2="225.348" gradientUnits="userSpaceOnUse">
<stop stop-color="#FF4A4A"/>
<stop offset="1" stop-color="#FFB46F"/>
</linearGradient>
<linearGradient id="paint2_linear_1838_3103" x1="217.661" y1="132" x2="215.892" y2="142.525" gradientUnits="userSpaceOnUse">
<stop stop-color="#0075FF"/>
<stop offset="1" stop-opacity="0"/>
</linearGradient>
<linearGradient id="paint3_linear_1838_3103" x1="168.941" y1="249" x2="170.121" y2="240.813" gradientUnits="userSpaceOnUse">
<stop stop-color="#0075FF"/>
<stop offset="1" stop-opacity="0"/>
</linearGradient>
<linearGradient id="paint4_linear_1838_3103" x1="181.701" y1="249" x2="181.701" y2="243.15" gradientUnits="userSpaceOnUse">
<stop stop-color="#FF6E4E"/>
<stop offset="1" stop-opacity="0"/>
</linearGradient>
<radialGradient id="paint5_radial_1838_3103" cx="0" cy="0" r="1" gradientUnits="userSpaceOnUse" gradientTransform="translate(256.143 300.5) rotate(-132.334) scale(288.812 135.068)">
<stop stop-color="#DEFFE1"/>
<stop offset="0.25" stop-color="#DEFDFF"/>
<stop offset="0.28793" stop-color="#0075FF"/>
<stop offset="0.362342"/>
<stop offset="0.427083"/>
<stop offset="0.536458"/>
<stop offset="1"/>
</radialGradient>
<radialGradient id="paint6_radial_1838_3103" cx="0" cy="0" r="1" gradientUnits="userSpaceOnUse" gradientTransform="translate(315.143 107) rotate(-179.555) scale(257.508 116.185)">
<stop stop-color="#FFF6DE"/>
<stop offset="0.166667" stop-color="#FFECDE"/>
<stop offset="0.333333" stop-color="#FF6E4E"/>
<stop offset="0.5"/>
<stop offset="0.666667"/>
<stop offset="0.833333"/>
<stop offset="1"/>
</radialGradient>
</defs>
</svg>
