<svg width="547" height="515" viewBox="0 0 547 515" fill="none" xmlns="http://www.w3.org/2000/svg">
<g filter="url(#filter0_f_1948_4706)">
<rect x="310.954" y="504.062" width="312.211" height="308.596" rx="96" transform="rotate(-170.834 310.954 504.062)" fill="url(#paint0_linear_1948_4706)" style="mix-blend-mode:screen"/>
</g>
<g filter="url(#filter1_f_1948_4706)">
<rect x="337.129" y="515" width="312.211" height="308.596" rx="96" transform="rotate(-170.834 337.129 515)" fill="#B4DBFF" style="mix-blend-mode:screen"/>
</g>
<g filter="url(#filter2_f_1948_4706)">
<rect x="333.129" y="355" width="312.211" height="308.596" rx="96" transform="rotate(-170.834 333.129 355)" fill="#0075FF" style="mix-blend-mode:screen"/>
</g>
<g filter="url(#filter3_f_1948_4706)">
<rect x="469.76" y="458.921" width="251.38" height="393.621" rx="96" transform="rotate(-168.689 469.76 458.921)" fill="url(#paint1_linear_1948_4706)" style="mix-blend-mode:screen"/>
</g>
<g filter="url(#filter4_i_1948_4706)">
<rect x="502.285" y="491" width="464" height="468" rx="96" transform="rotate(180 502.285 491)" fill="black"/>
<rect x="502.285" y="491" width="464" height="468" rx="96" transform="rotate(180 502.285 491)" fill="url(#paint2_linear_1948_4706)" fill-opacity="0.4"/>
<rect x="502.285" y="491" width="464" height="468" rx="96" transform="rotate(180 502.285 491)" fill="url(#paint3_linear_1948_4706)" fill-opacity="0.4"/>
<rect x="502.285" y="491" width="464" height="468" rx="96" transform="rotate(180 502.285 491)" fill="url(#paint4_linear_1948_4706)" fill-opacity="0.4"/>
<rect x="502.285" y="491" width="464" height="468" rx="96" transform="rotate(180 502.285 491)" fill="url(#paint5_radial_1948_4706)" fill-opacity="0.9" style="mix-blend-mode:screen"/>
<rect x="502.285" y="491" width="464" height="468" rx="96" transform="rotate(180 502.285 491)" fill="url(#paint6_radial_1948_4706)" fill-opacity="0.9" style="mix-blend-mode:screen"/>
<g filter="url(#filter5_d_1948_4706)">
<path d="M238.064 233.609C247.77 224.515 260.461 219.958 273.816 220.814C286.978 221.669 298.621 228.111 306.704 237.869C313.948 229.507 318.347 218.597 318.347 206.691C318.365 180.384 296.98 159 270.691 159C244.401 159 222.999 180.384 222.999 206.691C222.999 218.44 227.276 229.21 234.364 237.537C235.516 236.176 236.755 234.849 238.082 233.609H238.064Z" fill="white"/>
<path d="M270.691 254.715C256.149 254.715 243.127 248.169 234.364 237.869C227.084 246.458 222.999 257.438 222.999 268.75C222.999 293.451 242.027 314.12 266.501 316.249C264.878 321.085 260.601 329.778 249.411 339.868C244.838 343.988 245.291 347.008 246.461 348.823C247.526 350.482 249.603 351.389 252.292 351.389C254.317 351.389 256.534 350.901 258.558 349.993C293.768 334.317 318.365 301.743 318.365 270.792C318.365 258.381 313.983 246.964 306.721 238.218C297.975 248.326 285.058 254.732 270.691 254.732V254.715Z" fill="white"/>
</g>
</g>
<defs>
<filter id="filter0_f_1948_4706" x="-13.2708" y="133.675" width="389.381" height="386.388" filterUnits="userSpaceOnUse" color-interpolation-filters="sRGB">
<feFlood flood-opacity="0" result="BackgroundImageFix"/>
<feBlend mode="normal" in="SourceGraphic" in2="BackgroundImageFix" result="shape"/>
<feGaussianBlur stdDeviation="8" result="effect1_foregroundBlur_1948_4706"/>
</filter>
<filter id="filter1_f_1948_4706" x="24.9041" y="156.612" width="365.381" height="362.388" filterUnits="userSpaceOnUse" color-interpolation-filters="sRGB">
<feFlood flood-opacity="0" result="BackgroundImageFix"/>
<feBlend mode="normal" in="SourceGraphic" in2="BackgroundImageFix" result="shape"/>
<feGaussianBlur stdDeviation="2" result="effect1_foregroundBlur_1948_4706"/>
</filter>
<filter id="filter2_f_1948_4706" x="20.9042" y="-3.3877" width="365.381" height="362.388" filterUnits="userSpaceOnUse" color-interpolation-filters="sRGB">
<feFlood flood-opacity="0" result="BackgroundImageFix"/>
<feBlend mode="normal" in="SourceGraphic" in2="BackgroundImageFix" result="shape"/>
<feGaussianBlur stdDeviation="2" result="effect1_foregroundBlur_1948_4706"/>
</filter>
<filter id="filter3_f_1948_4706" x="207.262" y="7.63965" width="355.701" height="467.281" filterUnits="userSpaceOnUse" color-interpolation-filters="sRGB">
<feFlood flood-opacity="0" result="BackgroundImageFix"/>
<feBlend mode="normal" in="SourceGraphic" in2="BackgroundImageFix" result="shape"/>
<feGaussianBlur stdDeviation="8" result="effect1_foregroundBlur_1948_4706"/>
</filter>
<filter id="filter4_i_1948_4706" x="38.2845" y="23" width="464" height="468" filterUnits="userSpaceOnUse" color-interpolation-filters="sRGB">
<feFlood flood-opacity="0" result="BackgroundImageFix"/>
<feBlend mode="normal" in="SourceGraphic" in2="BackgroundImageFix" result="shape"/>
<feColorMatrix in="SourceAlpha" type="matrix" values="0 0 0 0 0 0 0 0 0 0 0 0 0 0 0 0 0 0 127 0" result="hardAlpha"/>
<feOffset/>
<feGaussianBlur stdDeviation="6"/>
<feComposite in2="hardAlpha" operator="arithmetic" k2="-1" k3="1"/>
<feColorMatrix type="matrix" values="0 0 0 0 1 0 0 0 0 1 0 0 0 0 1 0 0 0 1 0"/>
<feBlend mode="screen" in2="shape" result="effect1_innerShadow_1948_4706"/>
</filter>
<filter id="filter5_d_1948_4706" x="206.999" y="143" width="127.365" height="224.39" filterUnits="userSpaceOnUse" color-interpolation-filters="sRGB">
<feFlood flood-opacity="0" result="BackgroundImageFix"/>
<feColorMatrix in="SourceAlpha" type="matrix" values="0 0 0 0 0 0 0 0 0 0 0 0 0 0 0 0 0 0 127 0" result="hardAlpha"/>
<feOffset/>
<feGaussianBlur stdDeviation="8"/>
<feComposite in2="hardAlpha" operator="out"/>
<feColorMatrix type="matrix" values="0 0 0 0 1 0 0 0 0 1 0 0 0 0 1 0 0 0 0.7 0"/>
<feBlend mode="screen" in2="BackgroundImageFix" result="effect1_dropShadow_1948_4706"/>
<feBlend mode="normal" in="SourceGraphic" in2="effect1_dropShadow_1948_4706" result="shape"/>
</filter>
<linearGradient id="paint0_linear_1948_4706" x1="467.06" y1="504.062" x2="467.06" y2="812.658" gradientUnits="userSpaceOnUse">
<stop stop-color="#0057FF"/>
<stop offset="1" stop-color="#00E0FF" stop-opacity="0"/>
</linearGradient>
<linearGradient id="paint1_linear_1948_4706" x1="461.692" y1="647.67" x2="603.738" y2="864.392" gradientUnits="userSpaceOnUse">
<stop stop-color="#FF4A4A"/>
<stop offset="1" stop-color="#FFB46F"/>
</linearGradient>
<linearGradient id="paint2_linear_1948_4706" x1="845.645" y1="491" x2="838.567" y2="533.1" gradientUnits="userSpaceOnUse">
<stop stop-color="#0075FF"/>
<stop offset="1" stop-opacity="0"/>
</linearGradient>
<linearGradient id="paint3_linear_1948_4706" x1="650.765" y1="959" x2="655.483" y2="926.251" gradientUnits="userSpaceOnUse">
<stop stop-color="#0075FF"/>
<stop offset="1" stop-opacity="0"/>
</linearGradient>
<linearGradient id="paint4_linear_1948_4706" x1="701.805" y1="959" x2="701.805" y2="935.6" gradientUnits="userSpaceOnUse">
<stop stop-color="#FF6E4E"/>
<stop offset="1" stop-opacity="0"/>
</linearGradient>
<radialGradient id="paint5_radial_1948_4706" cx="0" cy="0" r="1" gradientUnits="userSpaceOnUse" gradientTransform="translate(999.57 1165) rotate(-132.334) scale(1155.25 540.27)">
<stop stop-color="#DEFFE1"/>
<stop offset="0.25" stop-color="#DEFDFF"/>
<stop offset="0.28793" stop-color="#0075FF"/>
<stop offset="0.362342"/>
<stop offset="0.427083"/>
<stop offset="0.536458"/>
<stop offset="1"/>
</radialGradient>
<radialGradient id="paint6_radial_1948_4706" cx="0" cy="0" r="1" gradientUnits="userSpaceOnUse" gradientTransform="translate(1235.57 391) rotate(-179.555) scale(1030.03 464.739)">
<stop stop-color="#FFF6DE"/>
<stop offset="0.166667" stop-color="#FFECDE"/>
<stop offset="0.333333" stop-color="#FF6E4E"/>
<stop offset="0.5"/>
<stop offset="0.666667"/>
<stop offset="0.833333"/>
<stop offset="1"/>
</radialGradient>
</defs>
</svg>
