<svg width="19.7rem" height="7.1rem" viewBox="0 0 197 71" fill="none" xmlns="http://www.w3.org/2000/svg">
<path d="M43.6406 20.0156C45.724 20.0156 47.4896 20.1823 48.9375 20.5156C50.3958 20.849 51.5052 21.3438 52.2656 22C53.0365 22.6562 53.4219 23.4583 53.4219 24.4062C53.4115 25.8229 52.5625 26.901 50.875 27.6406C49.1875 28.3802 46.776 28.7448 43.6406 28.7344C40.4635 28.7448 38.026 28.3802 36.3281 27.6406C34.6406 26.901 33.7969 25.8229 33.7969 24.4062C33.7969 22.9896 34.6458 21.9062 36.3438 21.1562C38.0417 20.3958 40.474 20.0156 43.6406 20.0156ZM43.6406 22.5469C42.2344 22.5573 41.0677 22.6302 40.1406 22.7656C39.224 22.901 38.526 23.1094 38.0469 23.3906C37.5781 23.6615 37.3438 24 37.3438 24.4062C37.3438 24.8125 37.5781 25.151 38.0469 25.4219C38.5156 25.6823 39.2083 25.875 40.125 26C41.0521 26.1354 42.224 26.2031 43.6406 26.2031C45.0469 26.2031 46.2083 26.1354 47.125 26C48.0521 25.875 48.7448 25.6823 49.2031 25.4219C49.6719 25.151 49.9062 24.8125 49.9062 24.4062C49.9062 24 49.6719 23.6615 49.2031 23.3906C48.7344 23.1094 48.0365 22.901 47.1094 22.7656C46.1927 22.6302 45.0365 22.5573 43.6406 22.5469ZM55.1406 5.34375H32.0625V2.67188H55.1406V5.34375ZM43.6719 6.21875C46.7031 6.22917 49.0208 6.57812 50.625 7.26562C52.2292 7.95312 53.0312 8.96875 53.0312 10.3125C53.0312 11.6146 52.224 12.6094 50.6094 13.2969C49.0052 13.974 46.6927 14.3125 43.6719 14.3125C40.6406 14.3125 38.3125 13.9688 36.6875 13.2812C35.0729 12.5938 34.2656 11.6042 34.2656 10.3125C34.2656 8.96875 35.0729 7.95312 36.6875 7.26562C38.3021 6.57812 40.6302 6.22917 43.6719 6.21875ZM43.6719 8.59375C42.3802 8.60417 41.3177 8.66667 40.4844 8.78125C39.6615 8.89583 39.0365 9.08333 38.6094 9.34375C38.1927 9.59375 37.9844 9.91667 37.9844 10.3125C37.9844 10.6562 38.1927 10.9479 38.6094 11.1875C39.0365 11.4167 39.6667 11.599 40.5 11.7344C41.3438 11.8594 42.401 11.9219 43.6719 11.9219C44.9323 11.9219 45.9792 11.8594 46.8125 11.7344C47.6562 11.599 48.2865 11.4167 48.7031 11.1875C49.1198 10.9479 49.3281 10.6562 49.3281 10.3125C49.3281 9.91667 49.1198 9.59375 48.7031 9.34375C48.2865 9.08333 47.6615 8.89583 46.8281 8.78125C46.0052 8.66667 44.9531 8.60417 43.6719 8.59375ZM45.3906 4.5H41.9219V0.265625H45.3906V4.5ZM56.5312 18.6875H30.8125V15.9688H56.5312V18.6875ZM45.3906 17.2031H41.9219V13.2344H45.3906V17.2031ZM81.9688 28.75H78.4844V21.375H62.7188V18.5625H81.9688V28.75ZM81.9688 17.1719H78.4844V0.53125H81.9688V17.1719ZM66.5781 2.14062C68.0156 2.14062 69.3125 2.43229 70.4688 3.01562C71.625 3.58854 72.5312 4.39062 73.1875 5.42188C73.8542 6.45312 74.1875 7.625 74.1875 8.9375C74.1875 10.2604 73.8542 11.4375 73.1875 12.4688C72.5312 13.5 71.625 14.3125 70.4688 14.9062C69.3125 15.4896 68.0156 15.7812 66.5781 15.7812C65.1302 15.7812 63.8281 15.4896 62.6719 14.9062C61.526 14.3125 60.6198 13.5 59.9531 12.4688C59.2969 11.4375 58.9688 10.2604 58.9688 8.9375C58.9688 7.625 59.2969 6.45312 59.9531 5.42188C60.6198 4.39062 61.526 3.58854 62.6719 3.01562C63.8281 2.43229 65.1302 2.14062 66.5781 2.14062ZM66.5781 5.09375C65.7552 5.10417 65.026 5.26562 64.3906 5.57812C63.7552 5.88021 63.2552 6.32292 62.8906 6.90625C62.5365 7.48958 62.3594 8.16667 62.3594 8.9375C62.3594 9.71875 62.5365 10.401 62.8906 10.9844C63.2552 11.5677 63.7552 12.0208 64.3906 12.3438C65.026 12.6667 65.7552 12.8229 66.5781 12.8125C67.3906 12.8229 68.1146 12.6667 68.75 12.3438C69.3854 12.0208 69.875 11.5677 70.2188 10.9844C70.5729 10.401 70.75 9.71875 70.75 8.9375C70.75 8.16667 70.5729 7.48958 70.2188 6.90625C69.875 6.32292 69.3854 5.88021 68.75 5.57812C68.1146 5.26562 67.3906 5.10417 66.5781 5.09375ZM110.406 28.75H107.125V0.53125H110.406V28.75ZM107.938 14.3906H102.922V11.5938H107.938V14.3906ZM103.922 27.3594H100.75V1.0625H103.922V27.3594ZM88.9062 19.25C91.0521 19.25 92.8698 19.2031 94.3594 19.1094C95.8594 19.0156 97.3906 18.8229 98.9531 18.5312L99.2188 21.375C97.6354 21.6875 96.0833 21.8958 94.5625 22C93.0417 22.1042 91.1562 22.1615 88.9062 22.1719H86.9844V19.25H88.9062ZM97.5312 6.6875H90.4688V20.6562H86.9844V3.875H97.5312V6.6875ZM130.547 6H113.781V3.25H130.547V6ZM122.172 7.07812C123.526 7.08854 124.724 7.30729 125.766 7.73438C126.807 8.16146 127.615 8.76562 128.188 9.54688C128.771 10.3281 129.068 11.2292 129.078 12.25C129.068 13.2708 128.771 14.1719 128.188 14.9531C127.615 15.7344 126.802 16.3438 125.75 16.7812C124.708 17.2083 123.516 17.4219 122.172 17.4219C120.828 17.4219 119.63 17.2083 118.578 16.7812C117.526 16.3438 116.708 15.7344 116.125 14.9531C115.542 14.1719 115.25 13.2708 115.25 12.25C115.25 11.2292 115.542 10.3281 116.125 9.54688C116.708 8.76562 117.521 8.16146 118.562 7.73438C119.615 7.30729 120.818 7.08854 122.172 7.07812ZM122.172 9.70312C121.464 9.71354 120.839 9.82292 120.297 10.0312C119.755 10.2292 119.339 10.5208 119.047 10.9062C118.755 11.2812 118.609 11.7292 118.609 12.25C118.609 12.7708 118.755 13.2188 119.047 13.5938C119.339 13.9583 119.75 14.2396 120.281 14.4375C120.823 14.6354 121.453 14.7344 122.172 14.7344C122.891 14.7344 123.521 14.6354 124.062 14.4375C124.604 14.2396 125.026 13.9583 125.328 13.5938C125.63 13.2188 125.781 12.7708 125.781 12.25C125.781 11.7292 125.63 11.2812 125.328 10.9062C125.026 10.5208 124.604 10.2292 124.062 10.0312C123.521 9.82292 122.891 9.71354 122.172 9.70312ZM136.047 18.2344H132.578V0.53125H136.047V18.2344ZM140 10.8906H135.062V8.03125H140V10.8906ZM136.047 28.75H132.578V22.3125H117.219V19.5312H136.047V28.75ZM123.922 4.78125H120.438V0.40625H123.922V4.78125ZM162.109 5.90625H144.016V3.10938H162.109V5.90625ZM167.156 25.125H141.438V22.2969H167.156V25.125ZM150.656 23.2656H147.188V13.2812H150.656V23.2656ZM164.578 6.15625C164.578 7.69792 164.557 9.04167 164.516 10.1875C164.484 11.3229 164.391 12.6302 164.234 14.1094C164.089 15.5781 163.859 17.1562 163.547 18.8438L160.125 18.5156C160.427 16.9219 160.646 15.4167 160.781 14C160.927 12.5729 161.016 11.3177 161.047 10.2344C161.089 9.14062 161.109 7.79167 161.109 6.1875V6V3.10938H164.578V6V6.15625ZM157.672 23.2656H154.25V13.2812H157.672V23.2656ZM22.9688 61.5781H19.4844V42.5312H22.9688V61.5781ZM20.3438 52.25H13.1094V49.4219H20.3438V52.25ZM13.8125 57.4219H0.5625V44.5781H13.8125V57.4219ZM4.01562 54.6406H10.4062V47.3906H4.01562V54.6406ZM14.8125 60.6406C14.8125 62.2656 14.3542 63.776 13.4375 65.1719C12.5312 66.5677 11.25 67.7448 9.59375 68.7031C7.9375 69.6615 6.03125 70.3021 3.875 70.625L2.64062 67.9219C4.45312 67.6406 6.05208 67.1302 7.4375 66.3906C8.83333 65.6406 9.91146 64.7604 10.6719 63.75C11.4427 62.7396 11.8333 61.7031 11.8438 60.6406V59.75H14.8125V60.6406ZM15.4062 60.6406C15.4062 61.7656 15.776 62.8333 16.5156 63.8438C17.2656 64.8438 18.3385 65.7083 19.7344 66.4375C21.1406 67.1562 22.7812 67.651 24.6562 67.9219L23.2656 70.625C21.099 70.3021 19.1979 69.6719 17.5625 68.7344C15.9375 67.7969 14.6719 66.6302 13.7656 65.2344C12.8698 63.8385 12.4271 62.3073 12.4375 60.6406V59.75H15.4062V60.6406ZM35.0625 48.125C35.0521 49.7292 34.8125 51.25 34.3438 52.6875C33.8854 54.1146 33.1719 55.3854 32.2031 56.5C31.2448 57.6042 30.0573 58.4479 28.6406 59.0312L26.7656 56.3594C27.9948 55.849 29.026 55.1667 29.8594 54.3125C30.7031 53.4479 31.3229 52.4896 31.7188 51.4375C32.125 50.3854 32.3281 49.2812 32.3281 48.125V46.1406H35.0625V48.125ZM35.6562 48.125C35.6562 49.2396 35.8438 50.2812 36.2188 51.25C36.6042 52.2083 37.1875 53.0677 37.9688 53.8281C38.75 54.5885 39.724 55.1927 40.8906 55.6406L39.0781 58.2969C37.7031 57.7656 36.5677 57 35.6719 56C34.776 54.9896 34.1094 53.8177 33.6719 52.4844C33.2344 51.151 33.0208 49.6979 33.0312 48.125V46.1406H35.6562V48.125ZM40.2344 47.5H27.5625V44.7344H40.2344V47.5ZM51.1406 59.7344H47.8281V42.5625H51.1406V59.7344ZM48.7969 52.4531H43.9688V49.6406H48.7969V52.4531ZM45.1094 58.8438H41.8125V43.0781H45.1094V58.8438ZM41.6094 60.2344C43.5677 60.2344 45.276 60.4427 46.7344 60.8594C48.2031 61.276 49.3281 61.8802 50.1094 62.6719C50.8906 63.4635 51.2812 64.401 51.2812 65.4844C51.2812 66.5677 50.8906 67.5052 50.1094 68.2969C49.3281 69.0885 48.2031 69.6927 46.7344 70.1094C45.2656 70.526 43.5573 70.7344 41.6094 70.7344C39.6302 70.7344 37.9115 70.526 36.4531 70.1094C34.9948 69.6927 33.875 69.0885 33.0938 68.2969C32.3125 67.5052 31.9271 66.5677 31.9375 65.4844C31.9271 64.401 32.3125 63.4635 33.0938 62.6719C33.875 61.8802 34.9948 61.276 36.4531 60.8594C37.9115 60.4427 39.6302 60.2344 41.6094 60.2344ZM41.6094 62.875C40.2969 62.875 39.1771 62.974 38.25 63.1719C37.3333 63.3698 36.6302 63.6667 36.1406 64.0625C35.651 64.4583 35.4062 64.9323 35.4062 65.4844C35.4062 66.0469 35.6458 66.5208 36.125 66.9062C36.6146 67.2917 37.3177 67.5833 38.2344 67.7812C39.1615 67.9688 40.2865 68.0677 41.6094 68.0781C42.9115 68.0677 44.0208 67.9688 44.9375 67.7812C45.8646 67.5833 46.5729 67.2917 47.0625 66.9062C47.5521 66.5208 47.8021 66.0469 47.8125 65.4844C47.8021 64.9323 47.5521 64.4583 47.0625 64.0625C46.5729 63.6667 45.8594 63.3698 44.9219 63.1719C43.9948 62.974 42.8906 62.875 41.6094 62.875ZM78.1406 70.8281H74.625V42.5312H78.1406V70.8281ZM62.9219 44.5938C64.3385 44.5938 65.6042 45 66.7188 45.8125C67.8333 46.625 68.7031 47.7917 69.3281 49.3125C69.9531 50.8229 70.2656 52.5729 70.2656 54.5625C70.2656 56.5729 69.9531 58.3333 69.3281 59.8438C68.7031 61.3542 67.8333 62.5208 66.7188 63.3438C65.6042 64.1562 64.3385 64.5625 62.9219 64.5625C61.4948 64.5625 60.224 64.1562 59.1094 63.3438C57.9948 62.5208 57.1198 61.3542 56.4844 59.8438C55.849 58.3333 55.5365 56.5729 55.5469 54.5625C55.5365 52.5729 55.849 50.8229 56.4844 49.3125C57.1198 47.7917 57.9948 46.625 59.1094 45.8125C60.224 45 61.4948 44.5938 62.9219 44.5938ZM62.9219 47.7188C62.1198 47.7188 61.4115 47.9896 60.7969 48.5312C60.1927 49.0729 59.724 49.8646 59.3906 50.9062C59.0677 51.9375 58.9062 53.1562 58.9062 54.5625C58.9062 55.9896 59.0677 57.2188 59.3906 58.25C59.724 59.2812 60.1927 60.0677 60.7969 60.6094C61.4115 61.151 62.1198 61.4167 62.9219 61.4062C63.7135 61.4167 64.4115 61.151 65.0156 60.6094C65.6198 60.0677 66.0885 59.2812 66.4219 58.25C66.7552 57.2188 66.9219 55.9896 66.9219 54.5625C66.9219 53.1458 66.7552 51.9271 66.4219 50.9062C66.0885 49.875 65.6198 49.0885 65.0156 48.5469C64.4115 47.9948 63.7135 47.7188 62.9219 47.7188ZM99.375 49.3125C99.3646 51.5833 99.0521 53.7448 98.4375 55.7969C97.8333 57.8385 96.9375 59.6562 95.75 61.25C94.5729 62.8438 93.1667 64.0573 91.5312 64.8906L89.375 62.0781C90.8542 61.3802 92.1302 60.3646 93.2031 59.0312C94.2865 57.6875 95.1094 56.1771 95.6719 54.5C96.2448 52.8229 96.5365 51.0938 96.5469 49.3125V44.7969H99.375V49.3125ZM100 49.3125C100 51.0312 100.271 52.6927 100.812 54.2969C101.365 55.901 102.156 57.3438 103.188 58.625C104.229 59.9062 105.458 60.8906 106.875 61.5781L104.781 64.3438C103.188 63.5417 101.823 62.375 100.688 60.8438C99.5521 59.3125 98.6875 57.5625 98.0938 55.5938C97.5104 53.6146 97.224 51.5208 97.2344 49.3125V44.7969H100V49.3125ZM112.047 70.75H108.578V42.5312H112.047V70.75ZM116.406 56.5625H111.266V53.6094H116.406V56.5625ZM127 50.5312C127 52.625 126.672 54.6615 126.016 56.6406C125.37 58.6198 124.443 60.3854 123.234 61.9375C122.026 63.4896 120.625 64.6458 119.031 65.4062L116.984 62.6719C118.432 61.9844 119.708 60.9896 120.812 59.6875C121.917 58.375 122.76 56.9219 123.344 55.3281C123.938 53.7344 124.24 52.1354 124.25 50.5312V46.8125H127V50.5312ZM127.719 50.5312C127.708 52.0312 127.984 53.5312 128.547 55.0312C129.109 56.5208 129.922 57.8802 130.984 59.1094C132.057 60.3385 133.318 61.2917 134.766 61.9688L132.812 64.7031C131.219 63.9531 129.828 62.8438 128.641 61.375C127.453 59.8958 126.542 58.2135 125.906 56.3281C125.271 54.4427 124.953 52.5104 124.953 50.5312V46.8125H127.719V50.5312ZM133.625 48.1719H118.078V45.3281H133.625V48.1719ZM139.703 70.75H136.234V42.5312H139.703V70.75ZM144.062 56.4531H138.922V53.5312H144.062V56.4531ZM168.938 70.8281H165.438V42.5312H168.938V70.8281ZM166.312 56.375H159.984V53.5625H166.312V56.375ZM154.812 51.5C154.802 53.5 154.49 55.4271 153.875 57.2812C153.271 59.125 152.38 60.7656 151.203 62.2031C150.026 63.6406 148.641 64.7188 147.047 65.4375L145.172 62.75C146.599 62.1042 147.833 61.1823 148.875 59.9844C149.927 58.7865 150.724 57.4531 151.266 55.9844C151.807 54.5052 152.078 53.0104 152.078 51.5V49.5938H154.812V51.5ZM155.531 51.5C155.531 52.9479 155.807 54.3802 156.359 55.7969C156.922 57.2031 157.734 58.4792 158.797 59.625C159.859 60.7708 161.115 61.6615 162.562 62.2969L160.656 64.9688C159.042 64.2708 157.641 63.2344 156.453 61.8594C155.266 60.474 154.359 58.8854 153.734 57.0938C153.109 55.3021 152.802 53.4375 152.812 51.5V49.5938H155.531V51.5ZM161.5 50.0312H146.031V47.25H161.5V50.0312ZM155.562 48.7344H152.109V43.1406H155.562V48.7344ZM196.547 70.4219H177.656V60.4844H196.547V70.4219ZM181.109 67.625H193.094V63.1719H181.109V67.625ZM196.547 59.1406H193.078V42.5625H196.547V59.1406ZM193.891 51.3906H188.25V48.5781H193.891V51.3906ZM176.266 55.4062C178.974 55.4167 181.26 55.3698 183.125 55.2656C184.99 55.1615 186.891 54.9531 188.828 54.6406L189.109 57.4688C187.151 57.7917 185.219 58.0052 183.312 58.1094C181.417 58.2031 179.068 58.2448 176.266 58.2344H174.031V55.4062H176.266ZM186.703 52.2656H177.469V57.6719H174.031V49.6406H183.312V46.7188H173.984V43.9062H186.703V52.2656Z" fill="white"/>
<path d="M43.6406 20.0156C45.724 20.0156 47.4896 20.1823 48.9375 20.5156C50.3958 20.849 51.5052 21.3438 52.2656 22C53.0365 22.6562 53.4219 23.4583 53.4219 24.4062C53.4115 25.8229 52.5625 26.901 50.875 27.6406C49.1875 28.3802 46.776 28.7448 43.6406 28.7344C40.4635 28.7448 38.026 28.3802 36.3281 27.6406C34.6406 26.901 33.7969 25.8229 33.7969 24.4062C33.7969 22.9896 34.6458 21.9062 36.3438 21.1562C38.0417 20.3958 40.474 20.0156 43.6406 20.0156ZM43.6406 22.5469C42.2344 22.5573 41.0677 22.6302 40.1406 22.7656C39.224 22.901 38.526 23.1094 38.0469 23.3906C37.5781 23.6615 37.3438 24 37.3438 24.4062C37.3438 24.8125 37.5781 25.151 38.0469 25.4219C38.5156 25.6823 39.2083 25.875 40.125 26C41.0521 26.1354 42.224 26.2031 43.6406 26.2031C45.0469 26.2031 46.2083 26.1354 47.125 26C48.0521 25.875 48.7448 25.6823 49.2031 25.4219C49.6719 25.151 49.9062 24.8125 49.9062 24.4062C49.9062 24 49.6719 23.6615 49.2031 23.3906C48.7344 23.1094 48.0365 22.901 47.1094 22.7656C46.1927 22.6302 45.0365 22.5573 43.6406 22.5469ZM55.1406 5.34375H32.0625V2.67188H55.1406V5.34375ZM43.6719 6.21875C46.7031 6.22917 49.0208 6.57812 50.625 7.26562C52.2292 7.95312 53.0312 8.96875 53.0312 10.3125C53.0312 11.6146 52.224 12.6094 50.6094 13.2969C49.0052 13.974 46.6927 14.3125 43.6719 14.3125C40.6406 14.3125 38.3125 13.9688 36.6875 13.2812C35.0729 12.5938 34.2656 11.6042 34.2656 10.3125C34.2656 8.96875 35.0729 7.95312 36.6875 7.26562C38.3021 6.57812 40.6302 6.22917 43.6719 6.21875ZM43.6719 8.59375C42.3802 8.60417 41.3177 8.66667 40.4844 8.78125C39.6615 8.89583 39.0365 9.08333 38.6094 9.34375C38.1927 9.59375 37.9844 9.91667 37.9844 10.3125C37.9844 10.6562 38.1927 10.9479 38.6094 11.1875C39.0365 11.4167 39.6667 11.599 40.5 11.7344C41.3438 11.8594 42.401 11.9219 43.6719 11.9219C44.9323 11.9219 45.9792 11.8594 46.8125 11.7344C47.6562 11.599 48.2865 11.4167 48.7031 11.1875C49.1198 10.9479 49.3281 10.6562 49.3281 10.3125C49.3281 9.91667 49.1198 9.59375 48.7031 9.34375C48.2865 9.08333 47.6615 8.89583 46.8281 8.78125C46.0052 8.66667 44.9531 8.60417 43.6719 8.59375ZM45.3906 4.5H41.9219V0.265625H45.3906V4.5ZM56.5312 18.6875H30.8125V15.9688H56.5312V18.6875ZM45.3906 17.2031H41.9219V13.2344H45.3906V17.2031ZM81.9688 28.75H78.4844V21.375H62.7188V18.5625H81.9688V28.75ZM81.9688 17.1719H78.4844V0.53125H81.9688V17.1719ZM66.5781 2.14062C68.0156 2.14062 69.3125 2.43229 70.4688 3.01562C71.625 3.58854 72.5312 4.39062 73.1875 5.42188C73.8542 6.45312 74.1875 7.625 74.1875 8.9375C74.1875 10.2604 73.8542 11.4375 73.1875 12.4688C72.5312 13.5 71.625 14.3125 70.4688 14.9062C69.3125 15.4896 68.0156 15.7812 66.5781 15.7812C65.1302 15.7812 63.8281 15.4896 62.6719 14.9062C61.526 14.3125 60.6198 13.5 59.9531 12.4688C59.2969 11.4375 58.9688 10.2604 58.9688 8.9375C58.9688 7.625 59.2969 6.45312 59.9531 5.42188C60.6198 4.39062 61.526 3.58854 62.6719 3.01562C63.8281 2.43229 65.1302 2.14062 66.5781 2.14062ZM66.5781 5.09375C65.7552 5.10417 65.026 5.26562 64.3906 5.57812C63.7552 5.88021 63.2552 6.32292 62.8906 6.90625C62.5365 7.48958 62.3594 8.16667 62.3594 8.9375C62.3594 9.71875 62.5365 10.401 62.8906 10.9844C63.2552 11.5677 63.7552 12.0208 64.3906 12.3438C65.026 12.6667 65.7552 12.8229 66.5781 12.8125C67.3906 12.8229 68.1146 12.6667 68.75 12.3438C69.3854 12.0208 69.875 11.5677 70.2188 10.9844C70.5729 10.401 70.75 9.71875 70.75 8.9375C70.75 8.16667 70.5729 7.48958 70.2188 6.90625C69.875 6.32292 69.3854 5.88021 68.75 5.57812C68.1146 5.26562 67.3906 5.10417 66.5781 5.09375ZM110.406 28.75H107.125V0.53125H110.406V28.75ZM107.938 14.3906H102.922V11.5938H107.938V14.3906ZM103.922 27.3594H100.75V1.0625H103.922V27.3594ZM88.9062 19.25C91.0521 19.25 92.8698 19.2031 94.3594 19.1094C95.8594 19.0156 97.3906 18.8229 98.9531 18.5312L99.2188 21.375C97.6354 21.6875 96.0833 21.8958 94.5625 22C93.0417 22.1042 91.1562 22.1615 88.9062 22.1719H86.9844V19.25H88.9062ZM97.5312 6.6875H90.4688V20.6562H86.9844V3.875H97.5312V6.6875ZM130.547 6H113.781V3.25H130.547V6ZM122.172 7.07812C123.526 7.08854 124.724 7.30729 125.766 7.73438C126.807 8.16146 127.615 8.76562 128.188 9.54688C128.771 10.3281 129.068 11.2292 129.078 12.25C129.068 13.2708 128.771 14.1719 128.188 14.9531C127.615 15.7344 126.802 16.3438 125.75 16.7812C124.708 17.2083 123.516 17.4219 122.172 17.4219C120.828 17.4219 119.63 17.2083 118.578 16.7812C117.526 16.3438 116.708 15.7344 116.125 14.9531C115.542 14.1719 115.25 13.2708 115.25 12.25C115.25 11.2292 115.542 10.3281 116.125 9.54688C116.708 8.76562 117.521 8.16146 118.562 7.73438C119.615 7.30729 120.818 7.08854 122.172 7.07812ZM122.172 9.70312C121.464 9.71354 120.839 9.82292 120.297 10.0312C119.755 10.2292 119.339 10.5208 119.047 10.9062C118.755 11.2812 118.609 11.7292 118.609 12.25C118.609 12.7708 118.755 13.2188 119.047 13.5938C119.339 13.9583 119.75 14.2396 120.281 14.4375C120.823 14.6354 121.453 14.7344 122.172 14.7344C122.891 14.7344 123.521 14.6354 124.062 14.4375C124.604 14.2396 125.026 13.9583 125.328 13.5938C125.63 13.2188 125.781 12.7708 125.781 12.25C125.781 11.7292 125.63 11.2812 125.328 10.9062C125.026 10.5208 124.604 10.2292 124.062 10.0312C123.521 9.82292 122.891 9.71354 122.172 9.70312ZM136.047 18.2344H132.578V0.53125H136.047V18.2344ZM140 10.8906H135.062V8.03125H140V10.8906ZM136.047 28.75H132.578V22.3125H117.219V19.5312H136.047V28.75ZM123.922 4.78125H120.438V0.40625H123.922V4.78125ZM162.109 5.90625H144.016V3.10938H162.109V5.90625ZM167.156 25.125H141.438V22.2969H167.156V25.125ZM150.656 23.2656H147.188V13.2812H150.656V23.2656ZM164.578 6.15625C164.578 7.69792 164.557 9.04167 164.516 10.1875C164.484 11.3229 164.391 12.6302 164.234 14.1094C164.089 15.5781 163.859 17.1562 163.547 18.8438L160.125 18.5156C160.427 16.9219 160.646 15.4167 160.781 14C160.927 12.5729 161.016 11.3177 161.047 10.2344C161.089 9.14062 161.109 7.79167 161.109 6.1875V6V3.10938H164.578V6V6.15625ZM157.672 23.2656H154.25V13.2812H157.672V23.2656ZM22.9688 61.5781H19.4844V42.5312H22.9688V61.5781ZM20.3438 52.25H13.1094V49.4219H20.3438V52.25ZM13.8125 57.4219H0.5625V44.5781H13.8125V57.4219ZM4.01562 54.6406H10.4062V47.3906H4.01562V54.6406ZM14.8125 60.6406C14.8125 62.2656 14.3542 63.776 13.4375 65.1719C12.5312 66.5677 11.25 67.7448 9.59375 68.7031C7.9375 69.6615 6.03125 70.3021 3.875 70.625L2.64062 67.9219C4.45312 67.6406 6.05208 67.1302 7.4375 66.3906C8.83333 65.6406 9.91146 64.7604 10.6719 63.75C11.4427 62.7396 11.8333 61.7031 11.8438 60.6406V59.75H14.8125V60.6406ZM15.4062 60.6406C15.4062 61.7656 15.776 62.8333 16.5156 63.8438C17.2656 64.8438 18.3385 65.7083 19.7344 66.4375C21.1406 67.1562 22.7812 67.651 24.6562 67.9219L23.2656 70.625C21.099 70.3021 19.1979 69.6719 17.5625 68.7344C15.9375 67.7969 14.6719 66.6302 13.7656 65.2344C12.8698 63.8385 12.4271 62.3073 12.4375 60.6406V59.75H15.4062V60.6406ZM35.0625 48.125C35.0521 49.7292 34.8125 51.25 34.3438 52.6875C33.8854 54.1146 33.1719 55.3854 32.2031 56.5C31.2448 57.6042 30.0573 58.4479 28.6406 59.0312L26.7656 56.3594C27.9948 55.849 29.026 55.1667 29.8594 54.3125C30.7031 53.4479 31.3229 52.4896 31.7188 51.4375C32.125 50.3854 32.3281 49.2812 32.3281 48.125V46.1406H35.0625V48.125ZM35.6562 48.125C35.6562 49.2396 35.8438 50.2812 36.2188 51.25C36.6042 52.2083 37.1875 53.0677 37.9688 53.8281C38.75 54.5885 39.724 55.1927 40.8906 55.6406L39.0781 58.2969C37.7031 57.7656 36.5677 57 35.6719 56C34.776 54.9896 34.1094 53.8177 33.6719 52.4844C33.2344 51.151 33.0208 49.6979 33.0312 48.125V46.1406H35.6562V48.125ZM40.2344 47.5H27.5625V44.7344H40.2344V47.5ZM51.1406 59.7344H47.8281V42.5625H51.1406V59.7344ZM48.7969 52.4531H43.9688V49.6406H48.7969V52.4531ZM45.1094 58.8438H41.8125V43.0781H45.1094V58.8438ZM41.6094 60.2344C43.5677 60.2344 45.276 60.4427 46.7344 60.8594C48.2031 61.276 49.3281 61.8802 50.1094 62.6719C50.8906 63.4635 51.2812 64.401 51.2812 65.4844C51.2812 66.5677 50.8906 67.5052 50.1094 68.2969C49.3281 69.0885 48.2031 69.6927 46.7344 70.1094C45.2656 70.526 43.5573 70.7344 41.6094 70.7344C39.6302 70.7344 37.9115 70.526 36.4531 70.1094C34.9948 69.6927 33.875 69.0885 33.0938 68.2969C32.3125 67.5052 31.9271 66.5677 31.9375 65.4844C31.9271 64.401 32.3125 63.4635 33.0938 62.6719C33.875 61.8802 34.9948 61.276 36.4531 60.8594C37.9115 60.4427 39.6302 60.2344 41.6094 60.2344ZM41.6094 62.875C40.2969 62.875 39.1771 62.974 38.25 63.1719C37.3333 63.3698 36.6302 63.6667 36.1406 64.0625C35.651 64.4583 35.4062 64.9323 35.4062 65.4844C35.4062 66.0469 35.6458 66.5208 36.125 66.9062C36.6146 67.2917 37.3177 67.5833 38.2344 67.7812C39.1615 67.9688 40.2865 68.0677 41.6094 68.0781C42.9115 68.0677 44.0208 67.9688 44.9375 67.7812C45.8646 67.5833 46.5729 67.2917 47.0625 66.9062C47.5521 66.5208 47.8021 66.0469 47.8125 65.4844C47.8021 64.9323 47.5521 64.4583 47.0625 64.0625C46.5729 63.6667 45.8594 63.3698 44.9219 63.1719C43.9948 62.974 42.8906 62.875 41.6094 62.875ZM78.1406 70.8281H74.625V42.5312H78.1406V70.8281ZM62.9219 44.5938C64.3385 44.5938 65.6042 45 66.7188 45.8125C67.8333 46.625 68.7031 47.7917 69.3281 49.3125C69.9531 50.8229 70.2656 52.5729 70.2656 54.5625C70.2656 56.5729 69.9531 58.3333 69.3281 59.8438C68.7031 61.3542 67.8333 62.5208 66.7188 63.3438C65.6042 64.1562 64.3385 64.5625 62.9219 64.5625C61.4948 64.5625 60.224 64.1562 59.1094 63.3438C57.9948 62.5208 57.1198 61.3542 56.4844 59.8438C55.849 58.3333 55.5365 56.5729 55.5469 54.5625C55.5365 52.5729 55.849 50.8229 56.4844 49.3125C57.1198 47.7917 57.9948 46.625 59.1094 45.8125C60.224 45 61.4948 44.5938 62.9219 44.5938ZM62.9219 47.7188C62.1198 47.7188 61.4115 47.9896 60.7969 48.5312C60.1927 49.0729 59.724 49.8646 59.3906 50.9062C59.0677 51.9375 58.9062 53.1562 58.9062 54.5625C58.9062 55.9896 59.0677 57.2188 59.3906 58.25C59.724 59.2812 60.1927 60.0677 60.7969 60.6094C61.4115 61.151 62.1198 61.4167 62.9219 61.4062C63.7135 61.4167 64.4115 61.151 65.0156 60.6094C65.6198 60.0677 66.0885 59.2812 66.4219 58.25C66.7552 57.2188 66.9219 55.9896 66.9219 54.5625C66.9219 53.1458 66.7552 51.9271 66.4219 50.9062C66.0885 49.875 65.6198 49.0885 65.0156 48.5469C64.4115 47.9948 63.7135 47.7188 62.9219 47.7188ZM99.375 49.3125C99.3646 51.5833 99.0521 53.7448 98.4375 55.7969C97.8333 57.8385 96.9375 59.6562 95.75 61.25C94.5729 62.8438 93.1667 64.0573 91.5312 64.8906L89.375 62.0781C90.8542 61.3802 92.1302 60.3646 93.2031 59.0312C94.2865 57.6875 95.1094 56.1771 95.6719 54.5C96.2448 52.8229 96.5365 51.0938 96.5469 49.3125V44.7969H99.375V49.3125ZM100 49.3125C100 51.0312 100.271 52.6927 100.812 54.2969C101.365 55.901 102.156 57.3438 103.188 58.625C104.229 59.9062 105.458 60.8906 106.875 61.5781L104.781 64.3438C103.188 63.5417 101.823 62.375 100.688 60.8438C99.5521 59.3125 98.6875 57.5625 98.0938 55.5938C97.5104 53.6146 97.224 51.5208 97.2344 49.3125V44.7969H100V49.3125ZM112.047 70.75H108.578V42.5312H112.047V70.75ZM116.406 56.5625H111.266V53.6094H116.406V56.5625ZM127 50.5312C127 52.625 126.672 54.6615 126.016 56.6406C125.37 58.6198 124.443 60.3854 123.234 61.9375C122.026 63.4896 120.625 64.6458 119.031 65.4062L116.984 62.6719C118.432 61.9844 119.708 60.9896 120.812 59.6875C121.917 58.375 122.76 56.9219 123.344 55.3281C123.938 53.7344 124.24 52.1354 124.25 50.5312V46.8125H127V50.5312ZM127.719 50.5312C127.708 52.0312 127.984 53.5312 128.547 55.0312C129.109 56.5208 129.922 57.8802 130.984 59.1094C132.057 60.3385 133.318 61.2917 134.766 61.9688L132.812 64.7031C131.219 63.9531 129.828 62.8438 128.641 61.375C127.453 59.8958 126.542 58.2135 125.906 56.3281C125.271 54.4427 124.953 52.5104 124.953 50.5312V46.8125H127.719V50.5312ZM133.625 48.1719H118.078V45.3281H133.625V48.1719ZM139.703 70.75H136.234V42.5312H139.703V70.75ZM144.062 56.4531H138.922V53.5312H144.062V56.4531ZM168.938 70.8281H165.438V42.5312H168.938V70.8281ZM166.312 56.375H159.984V53.5625H166.312V56.375ZM154.812 51.5C154.802 53.5 154.49 55.4271 153.875 57.2812C153.271 59.125 152.38 60.7656 151.203 62.2031C150.026 63.6406 148.641 64.7188 147.047 65.4375L145.172 62.75C146.599 62.1042 147.833 61.1823 148.875 59.9844C149.927 58.7865 150.724 57.4531 151.266 55.9844C151.807 54.5052 152.078 53.0104 152.078 51.5V49.5938H154.812V51.5ZM155.531 51.5C155.531 52.9479 155.807 54.3802 156.359 55.7969C156.922 57.2031 157.734 58.4792 158.797 59.625C159.859 60.7708 161.115 61.6615 162.562 62.2969L160.656 64.9688C159.042 64.2708 157.641 63.2344 156.453 61.8594C155.266 60.474 154.359 58.8854 153.734 57.0938C153.109 55.3021 152.802 53.4375 152.812 51.5V49.5938H155.531V51.5ZM161.5 50.0312H146.031V47.25H161.5V50.0312ZM155.562 48.7344H152.109V43.1406H155.562V48.7344ZM196.547 70.4219H177.656V60.4844H196.547V70.4219ZM181.109 67.625H193.094V63.1719H181.109V67.625ZM196.547 59.1406H193.078V42.5625H196.547V59.1406ZM193.891 51.3906H188.25V48.5781H193.891V51.3906ZM176.266 55.4062C178.974 55.4167 181.26 55.3698 183.125 55.2656C184.99 55.1615 186.891 54.9531 188.828 54.6406L189.109 57.4688C187.151 57.7917 185.219 58.0052 183.312 58.1094C181.417 58.2031 179.068 58.2448 176.266 58.2344H174.031V55.4062H176.266ZM186.703 52.2656H177.469V57.6719H174.031V49.6406H183.312V46.7188H173.984V43.9062H186.703V52.2656Z" fill="url(#paint0_linear_975_22594)"/>
<defs>
<linearGradient id="paint0_linear_975_22594" x1="99" y1="49" x2="99" y2="105" gradientUnits="userSpaceOnUse">
<stop stop-opacity="0"/>
<stop offset="0.750302"/>
</linearGradient>
</defs>
</svg>
